<?xml version="1.0" standalone="no"?>
<!DOCTYPE svg PUBLIC "-//W3C//DTD SVG 20010904//EN"
 "http://www.w3.org/TR/2001/REC-SVG-20010904/DTD/svg10.dtd">
<svg version="1.0" xmlns="http://www.w3.org/2000/svg"
 width="565.000000pt" height="334.000000pt" viewBox="0 0 565.000000 334.000000"
 preserveAspectRatio="xMidYMid meet">

<g transform="translate(0.000000,334.000000) scale(0.100000,-0.100000)"
fill="#000000" stroke="none">
<path d="M218 3330 c-72 -22 -155 -98 -192 -179 l-21 -46 0 -1420 0 -1420 23
-57 c28 -70 95 -141 160 -171 l47 -22 2589 -3 2589 -2 56 25 c71 33 127 86
157 150 l24 50 0 1441 0 1440 -26 52 c-14 28 -48 71 -75 96 -93 83 171 76
-2723 75 -1420 0 -2593 -4 -2608 -9z m5218 -156 c15 -11 37 -33 48 -48 21 -27
21 -29 21 -1451 0 -1422 0 -1424 -21 -1451 -11 -15 -33 -37 -48 -48 l-27 -21
-2562 -3 -2563 -2 -44 22 c-33 17 -51 35 -67 68 l-23 44 0 1392 c0 962 3 1401
11 1421 14 37 47 73 84 89 25 11 473 13 2597 11 l2567 -2 27 -21z"/>
<path d="M4056 2339 c-22 -17 -26 -28 -26 -71 0 -109 37 -167 113 -175 86 -10
134 42 144 157 5 53 3 61 -20 84 -24 24 -33 26 -105 26 -65 0 -84 -4 -106 -21z"/>
<path d="M842 2011 c-114 -42 -216 -152 -242 -261 -19 -78 -9 -194 22 -262
110 -240 428 -303 627 -123 55 50 109 161 117 241 17 159 -70 315 -214 386
-59 29 -77 33 -162 36 -74 2 -107 -2 -148 -17z"/>
<path d="M2213 2010 c-22 -5 -59 -18 -82 -29 -42 -22 -111 -85 -111 -101 0 -6
-4 -10 -10 -10 -5 0 -8 27 -6 65 l3 65 -98 0 -99 0 0 -415 0 -415 100 0 100 0
0 288 c0 320 2 333 70 380 40 27 116 30 161 6 55 -28 59 -53 59 -379 l0 -295
100 0 100 0 0 290 c0 313 1 320 54 370 21 19 40 25 89 28 57 4 66 1 95 -23 17
-14 36 -43 42 -63 6 -21 10 -158 10 -319 l0 -283 101 0 100 0 -3 333 c-3 321
-4 334 -26 382 -27 58 -46 82 -87 103 -106 55 -274 19 -354 -76 l-35 -42 -21
35 c-29 47 -55 75 -85 90 -35 17 -117 24 -167 15z"/>
<path d="M4880 2009 c-94 -11 -183 -61 -222 -124 l-18 -30 0 73 0 72 -95 0
-95 0 0 -415 0 -415 100 0 100 0 0 293 c0 274 1 294 20 325 31 50 75 72 146
72 48 0 67 -5 89 -22 52 -41 55 -62 55 -378 l0 -290 101 0 100 0 -3 338 -3
337 -30 54 c-49 89 -127 124 -245 110z"/>
<path d="M3383 1991 c-120 -41 -193 -130 -193 -233 l0 -28 89 0 89 0 8 32 c19
89 106 131 202 97 47 -16 65 -53 70 -140 l4 -77 -153 -4 c-168 -4 -221 -18
-283 -76 -97 -92 -86 -291 22 -365 108 -75 293 -71 396 8 l45 34 3 -32 3 -32
99 -3 c91 -3 98 -1 91 15 -5 10 -11 151 -15 313 -6 247 -10 303 -25 344 -25
69 -89 131 -156 150 -73 22 -229 21 -296 -3z m253 -439 c6 -4 14 -52 17 -108
7 -100 7 -100 -21 -126 -48 -46 -90 -61 -153 -56 -39 3 -66 11 -80 24 -71 63
-63 207 13 254 27 16 50 20 123 20 50 0 95 -4 101 -8z"/>
<path d="M4050 1585 l0 -415 105 0 105 0 0 415 0 415 -105 0 -105 0 0 -415z"/>
</g>
</svg>
